HIERARCHY
ROOT Pelvis
{
	OFFSET 0.000000 0.000000 0.000000
	CHANNELS 6 Xposition Yposition Zposition Xrotation Yrotation Zrotation
	JOINT LeftUpLeg_virtual
	{
		OFFSET 0.000000 0.000000 0.000000
		CHANNELS 3 Xrotation Yrotation Zrotation
		JOINT LeftUpLeg
		{
			OFFSET 18.735201 -5.666702 -4.541200
			CHANNELS 3 Xrotation Yrotation Zrotation
			JOINT LeftLeg
			{
				OFFSET -0.021200 -31.938179 0.493100
				CHANNELS 3 Xrotation Yrotation Zrotation
				JOINT LeftFoot
				{
					OFFSET 0.021200 -31.938179 -4.336299
					CHANNELS 3 Xrotation Yrotation Zrotation
					JOINT LeftToeBase
					{
						OFFSET 0.943001 -26.722000 15.023500
						CHANNELS 3 Xrotation Yrotation Zrotation
						End Site
						{
							OFFSET 0 0 0
						}
					}
				}
			}
		}
	}
	JOINT RightUpLeg_virtual
	{
		OFFSET 0.000000 0.000000 0.000000
		CHANNELS 3 Xrotation Yrotation Zrotation
		JOINT RightUpLeg
		{
			OFFSET -18.735201 -5.666702 -4.541200
			CHANNELS 3 Xrotation Yrotation Zrotation
			JOINT RightLeg
			{
				OFFSET 0.018946 -31.938133 0.493100
				CHANNELS 3 Xrotation Yrotation Zrotation
				JOINT RightFoot
				{
					OFFSET -0.018946 -31.938126 -4.336299
					CHANNELS 3 Xrotation Yrotation Zrotation
					JOINT RightToeBase
					{
						OFFSET -0.943001 -26.722004 15.023500
						CHANNELS 3 Xrotation Yrotation Zrotation
						End Site
						{
							OFFSET 0 0 0
						}
					}
				}
			}
		}
	}
	JOINT Hips_virtual
	{
		OFFSET 0.000000 0.000000 0.000000
		CHANNELS 3 Xrotation Yrotation Zrotation
		JOINT Hips
		{
			OFFSET -0.000000 -0.000000 -0.000000
			CHANNELS 3 Xrotation Yrotation Zrotation
			JOINT Spine
			{
				OFFSET 0.000000 10.199997 -0.299500
				CHANNELS 3 Xrotation Yrotation Zrotation
				JOINT Spine1
				{
					OFFSET 0.000000 11.900002 -1.516600
					CHANNELS 3 Xrotation Yrotation Zrotation
					JOINT Spine2
					{
						OFFSET 0.000000 13.600006 -2.842500
						CHANNELS 3 Xrotation Yrotation Zrotation
						JOINT Neck_virtual
						{
							OFFSET 0.000000 0.000000 0.000000
							CHANNELS 3 Xrotation Yrotation Zrotation
							JOINT Neck
							{
								OFFSET 0.000000 9.624100 -2.890100
								CHANNELS 3 Xrotation Yrotation Zrotation
								JOINT Head
								{
									OFFSET 0.000000 14.068802 -1.351900
									CHANNELS 3 Xrotation Yrotation Zrotation
									End Site
									{
										OFFSET 0 0 0
									}
								}
							}
						}
						JOINT LeftShoulder_virtual
						{
							OFFSET 0.000000 0.000000 0.000000
							CHANNELS 3 Xrotation Yrotation Zrotation
							JOINT LeftShoulder
							{
								OFFSET 15.263000 10.923401 -0.547700
								CHANNELS 3 Xrotation Yrotation Zrotation
								JOINT LeftArm
								{
									OFFSET 25.438599 -2.830597 -13.032500
									CHANNELS 3 Xrotation Yrotation Zrotation
									JOINT LeftForeArm
									{
										OFFSET 29.960503 0.000000 0.000000
										CHANNELS 3 Xrotation Yrotation Zrotation
										JOINT LeftHand
										{
											OFFSET 27.849251 0.000000 0.000000
											CHANNELS 3 Xrotation Yrotation Zrotation
											End Site
											{
												OFFSET 0 0 0
											}
										}
									}
								}
							}
						}
						JOINT RightShoulder_virtual
						{
							OFFSET 0.000000 0.000000 0.000000
							CHANNELS 3 Xrotation Yrotation Zrotation
							JOINT RightShoulder
							{
								OFFSET -15.263000 10.923401 -0.547700
								CHANNELS 3 Xrotation Yrotation Zrotation
								JOINT RightArm
								{
									OFFSET -25.438599 -2.830597 -13.032500
									CHANNELS 3 Xrotation Yrotation Zrotation
									JOINT RightForeArm
									{
										OFFSET -29.960503 0.000000 0.000000
										CHANNELS 3 Xrotation Yrotation Zrotation
										JOINT RightHand
										{
											OFFSET -27.849251 0.000000 0.000000
											CHANNELS 3 Xrotation Yrotation Zrotation
											End Site
											{
												OFFSET 0 0 0
											}
										}
									}
								}
							}
						}
					}
				}
			}
		}
	}
}
MOTION
Frames: 10
Frame Time: 0.03333333
-1.287252 90.580109 2.976192 0.000000 0.000000 0.000000 -21.517094 -1.456607 -1.458734 -0.716353 31.876575 13.665428 40.396368 2.390808 -11.406278 -23.895342 23.604837 8.489036 0.000000 0.000000 0.000000 -23.542547 1.108482 -1.333143 24.354928 -16.066478 3.998596 25.014031 -13.997507 1.572057 -27.300432 -22.345654 -1.543518 0.000000 0.000000 0.000000 -23.434632 0.676772 -1.195430 -1.386713 -1.119744 -0.463338 11.731316 -4.208280 -0.277045 4.610883 -2.070512 0.203587 0.000000 0.000000 0.000000 3.609239 -1.848192 -0.193144 0.827436 0.182837 -0.600060 0.000000 0.000000 0.000000 3.634958 -1.829707 -0.447312 -0.111168 -16.209410 -11.401884 -21.985947 1.992177 -37.235094 1.995054 -59.254090 1.784954 0.000000 0.000000 0.000000 3.828784 -1.514489 -0.507288 -0.149519 15.492416 14.194051 -11.493454 -4.511941 62.728007 0.791960 40.976204 0.004590 0.000000 0.000000 0.000000 
-1.616555 90.594002 2.927963 0.000000 0.000000 0.000000 -21.666545 -1.602286 -1.527239 -1.023219 30.741121 14.023500 41.081488 1.633163 -10.709257 -21.905294 23.341760 6.815480 0.000000 0.000000 0.000000 -23.547864 0.920991 -1.499575 24.682337 -15.722447 4.141603 24.749867 -14.090043 1.348472 -28.016849 -22.258888 -1.812968 0.000000 0.000000 0.000000 -23.552186 0.348380 -1.371671 -1.331030 -1.030415 -0.518182 11.734184 -4.250378 -0.331536 4.598826 -2.108418 0.200752 0.000000 0.000000 0.000000 3.651062 -1.870923 -0.176673 0.825459 0.178465 -0.581933 0.000000 0.000000 0.000000 3.644623 -1.860989 -0.481974 -0.096825 -16.256168 -11.470651 -22.021032 1.852389 -37.322643 1.989594 -59.227821 1.738990 0.000000 0.000000 0.000000 3.782905 -1.543198 -0.482730 -0.106529 15.455323 14.206388 -11.406775 -4.672859 62.725035 0.833609 41.012404 -0.012903 0.000000 0.000000 0.000000 
-2.212674 90.732773 3.094009 0.000000 0.000000 0.000000 -22.077338 -1.945233 -1.884804 -3.002997 29.723576 15.386412 43.339258 1.121740 -9.866773 -17.785464 22.856147 5.135494 0.000000 0.000000 0.000000 -23.505995 0.223331 -2.022183 24.800601 -15.373820 4.157677 24.564366 -13.894913 1.231989 -28.904930 -22.131346 -1.442191 0.000000 0.000000 0.000000 -23.525419 -0.397026 -1.881593 -1.371553 -0.729826 -0.575229 11.704257 -4.300165 -0.346679 4.578185 -2.141002 0.205698 0.000000 0.000000 0.000000 3.711107 -1.909617 -0.155576 0.821707 0.177727 -0.561667 0.000000 0.000000 0.000000 3.661054 -1.903515 -0.506424 -0.088560 -16.371181 -11.560354 -22.203121 1.763636 -37.426366 1.975423 -59.079641 1.686145 0.000000 0.000000 0.000000 3.744764 -1.579339 -0.447838 -0.062319 15.428275 14.222637 -11.299575 -4.867336 62.758428 0.901537 40.971395 -0.065927 0.000000 0.000000 0.000000 
-2.842263 90.957657 3.427250 0.000000 0.000000 0.000000 -22.571924 -2.660131 -2.509798 -6.188219 28.589459 17.172320 46.417033 1.012332 -9.025134 -12.761747 22.000958 3.574311 0.000000 0.000000 0.000000 -23.514190 -1.011628 -2.846059 24.605425 -15.086609 3.994942 24.740666 -13.277901 1.220519 -29.287353 -21.940905 -0.421233 0.000000 0.000000 0.000000 -23.462796 -1.640468 -2.630764 -1.370030 -0.462799 -0.760835 11.663877 -4.339348 -0.325716 4.552044 -2.161587 0.219029 0.000000 0.000000 0.000000 3.775019 -1.951552 -0.131504 0.814442 0.179742 -0.543275 0.000000 0.000000 0.000000 3.677905 -1.949196 -0.517486 -0.081485 -16.520274 -11.623438 -22.453386 1.780932 -37.528126 1.964327 -58.904904 1.644000 0.000000 0.000000 0.000000 3.713553 -1.614776 -0.410121 -0.023021 15.415727 14.237633 -11.178341 -5.047295 62.806745 0.985923 40.888665 -0.143632 0.000000 0.000000 0.000000 
-3.357116 91.132286 3.746037 0.000000 0.000000 0.000000 -22.964001 -4.064540 -3.432822 -9.247492 26.600812 18.352677 49.430567 1.008664 -7.885070 -9.201289 20.428681 2.147224 0.000000 0.000000 0.000000 -23.622390 -2.718464 -3.866572 24.166616 -14.677081 3.600560 25.144997 -12.168359 1.191281 -29.287868 -21.635410 0.859444 0.000000 0.000000 0.000000 -23.418362 -3.458407 -3.556889 -1.292745 -0.318802 -1.019284 11.648109 -4.362558 -0.292491 4.528427 -2.174406 0.237957 0.000000 0.000000 0.000000 3.833039 -1.983201 -0.107980 0.799981 0.184600 -0.529643 0.000000 0.000000 0.000000 3.689496 -1.990290 -0.518630 -0.074679 -16.682112 -11.638719 -22.678176 1.899306 -37.621201 1.975994 -58.826664 1.624339 0.000000 0.000000 0.000000 3.697237 -1.640826 -0.381057 0.011407 15.402280 14.263678 -11.031176 -5.152252 62.828888 1.077473 40.807798 -0.232296 0.000000 0.000000 0.000000 
-3.726717 91.263550 4.170700 0.000000 0.000000 0.000000 -23.195742 -6.200408 -4.551957 -10.399842 23.671332 17.956125 50.843413 0.811480 -6.281035 -8.347770 17.844523 0.120105 0.000000 0.000000 0.000000 -23.817098 -4.848412 -4.995499 23.757999 -14.012427 3.006786 25.426240 -10.589257 1.063408 -29.363017 -21.193473 2.189454 0.000000 0.000000 0.000000 -23.550530 -5.724453 -4.617965 -1.094284 -0.240256 -1.114315 11.672527 -4.380690 -0.269252 4.502506 -2.187847 0.259492 0.000000 0.000000 0.000000 3.867082 -1.999613 -0.088073 0.778768 0.190341 -0.521784 0.000000 0.000000 0.000000 3.695678 -2.015546 -0.515926 -0.058126 -16.838880 -11.593062 -22.795324 2.080030 -37.733042 2.017500 -58.899720 1.626002 0.000000 0.000000 0.000000 3.698679 -1.655517 -0.368080 0.042429 15.394756 14.315744 -10.855405 -5.177417 62.796179 1.167298 40.778818 -0.312531 0.000000 0.000000 0.000000 
-3.916233 91.315834 4.752819 0.000000 0.000000 0.000000 -23.407019 -8.841692 -5.750455 -9.250499 20.359230 16.065865 49.809715 0.354894 -4.370518 -10.184648 14.394224 -3.060863 0.000000 0.000000 0.000000 -24.148511 -7.251798 -6.168135 23.500557 -13.229959 2.217053 25.552151 -8.643387 0.878730 -29.814633 -20.658337 3.515694 0.000000 0.000000 0.000000 -23.939296 -8.277808 -5.780887 -0.988655 -0.132409 -1.251262 11.754368 -4.400000 -0.275821 4.465124 -2.200568 0.278206 0.000000 0.000000 0.000000 3.877931 -2.002650 -0.074724 0.753300 0.195570 -0.519470 0.000000 0.000000 0.000000 3.697014 -2.022719 -0.516531 -0.030865 -16.976333 -11.501689 -22.822251 2.279292 -37.874639 2.084861 -59.069183 1.646445 0.000000 0.000000 0.000000 3.719555 -1.658802 -0.368589 0.068808 15.386787 14.404558 -10.656438 -5.155861 62.695857 1.249188 40.819615 -0.379595 0.000000 0.000000 0.000000 
-3.914938 91.312843 5.465183 0.000000 0.000000 0.000000 -23.857154 -11.772845 -7.045642 -6.970667 17.269472 13.584457 47.210121 -0.134087 -2.502345 -13.172564 11.122219 -6.677919 0.000000 0.000000 0.000000 -24.646189 -9.848312 -7.402520 23.251834 -12.640059 1.214313 25.630860 -6.496512 0.756769 -30.292439 -20.107409 4.846499 0.000000 0.000000 0.000000 -24.580635 -10.983678 -7.075924 -0.955102 0.042098 -1.176903 11.931628 -4.412267 -0.306023 4.434876 -2.211320 0.295287 0.000000 0.000000 0.000000 3.876914 -1.996995 -0.071081 0.725749 0.197022 -0.521224 0.000000 0.000000 0.000000 3.695129 -2.017741 -0.518258 0.003668 -17.087854 -11.371225 -22.813510 2.442538 -38.029523 2.169727 -59.201197 1.683461 0.000000 0.000000 0.000000 3.757655 -1.655687 -0.372666 0.085211 15.370157 14.529119 -10.462686 -5.113827 62.545149 1.321986 40.903339 -0.434671 0.000000 0.000000 0.000000 
-3.749586 91.336021 6.256554 0.000000 0.000000 0.000000 -24.660408 -14.795149 -8.449969 -4.933897 14.914712 11.226626 44.588551 -0.210359 -1.063525 -14.990657 8.888095 -9.551031 0.000000 0.000000 0.000000 -25.370335 -12.605361 -8.801183 22.921355 -12.474794 0.096592 25.846121 -4.341255 0.764694 -30.409809 -19.637193 5.876511 0.000000 0.000000 0.000000 -25.460394 -13.724996 -8.492612 -0.964451 0.159437 -1.043987 12.183688 -4.410348 -0.332532 4.425641 -2.213355 0.314384 0.000000 0.000000 0.000000 3.872365 -1.987907 -0.072672 0.699934 0.194238 -0.526401 0.000000 0.000000 0.000000 3.693607 -2.003784 -0.512726 0.042322 -17.177593 -11.212678 -22.793902 2.560513 -38.211002 2.251479 -59.200924 1.724538 0.000000 0.000000 0.000000 3.800348 -1.649733 -0.368643 0.088790 15.358292 14.674841 -10.285907 -5.074473 62.371279 1.378535 41.017301 -0.472532 0.000000 0.000000 0.000000 
-3.438005 91.328484 6.926308 0.000000 0.000000 0.000000 -25.789666 -17.706671 -9.971031 -3.743336 13.152288 9.219908 42.713903 0.180008 -0.041091 -15.533360 7.514514 -11.035257 0.000000 0.000000 0.000000 -26.372711 -15.432497 -10.369305 22.437561 -12.641603 -0.981570 26.341016 -2.315872 0.827178 -30.120062 -19.307439 6.121630 0.000000 0.000000 0.000000 -26.437120 -16.528429 -10.005502 -0.994258 0.327804 -1.003503 12.453714 -4.399378 -0.315440 4.426478 -2.207240 0.337635 0.000000 0.000000 0.000000 3.870677 -1.979280 -0.073826 0.677598 0.193026 -0.535107 0.000000 0.000000 0.000000 3.688666 -1.984240 -0.493851 0.074994 -17.253370 -11.034259 -22.751406 2.646364 -38.401103 2.315509 -59.118607 1.755981 0.000000 0.000000 0.000000 3.827028 -1.639747 -0.350232 0.081542 15.353775 14.828699 -10.107373 -5.049253 62.176783 1.405397 41.152033 -0.486121 0.000000 0.000000 0.000000 
